<svg class="main-svg" xmlns="http://www.w3.org/2000/svg" xmlns:xlink="http://www.w3.org/1999/xlink" width="700" height="350" style="" viewBox="0 0 700 350"><rect x="0" y="0" width="700" height="350" style="fill: rgb(255, 255, 255); fill-opacity: 1;"/><defs id="defs-7cea1c"><g class="clips"><clipPath id="clip7cea1cxyplot" class="plotclip"><rect width="156.15999999999997" height="170"/></clipPath><clipPath id="clip7cea1cx2y2plot" class="plotclip"><rect width="156.15999999999997" height="170"/></clipPath><clipPath id="clip7cea1cx3y3plot" class="plotclip"><rect width="156.15999999999997" height="170"/></clipPath><clipPath class="axesclip" id="clip7cea1cx"><rect x="80" y="0" width="156.15999999999997" height="350"/></clipPath><clipPath class="axesclip" id="clip7cea1cy"><rect x="0" y="100" width="700" height="170"/></clipPath><clipPath class="axesclip" id="clip7cea1cxy"><rect x="80" y="100" width="156.15999999999997" height="170"/></clipPath><clipPath class="axesclip" id="clip7cea1cy2"><rect x="0" y="100" width="700" height="170"/></clipPath><clipPath class="axesclip" id="clip7cea1cxy2"><rect x="80" y="100" width="156.15999999999997" height="170"/></clipPath><clipPath class="axesclip" id="clip7cea1cy3"><rect x="0" y="100" width="700" height="170"/></clipPath><clipPath class="axesclip" id="clip7cea1cxy3"><rect x="80" y="100" width="156.15999999999997" height="170"/></clipPath><clipPath class="axesclip" id="clip7cea1cx2"><rect x="245.92" y="0" width="156.15999999999997" height="350"/></clipPath><clipPath class="axesclip" id="clip7cea1cx2y"><rect x="245.92" y="100" width="156.15999999999997" height="170"/></clipPath><clipPath class="axesclip" id="clip7cea1cx2y2"><rect x="245.92" y="100" width="156.15999999999997" height="170"/></clipPath><clipPath class="axesclip" id="clip7cea1cx2y3"><rect x="245.92" y="100" width="156.15999999999997" height="170"/></clipPath><clipPath class="axesclip" id="clip7cea1cx3"><rect x="411.84" y="0" width="156.15999999999997" height="350"/></clipPath><clipPath class="axesclip" id="clip7cea1cx3y"><rect x="411.84" y="100" width="156.15999999999997" height="170"/></clipPath><clipPath class="axesclip" id="clip7cea1cx3y2"><rect x="411.84" y="100" width="156.15999999999997" height="170"/></clipPath><clipPath class="axesclip" id="clip7cea1cx3y3"><rect x="411.84" y="100" width="156.15999999999997" height="170"/></clipPath></g><g class="gradients"/></defs><g class="bglayer"/><g class="layer-below"><g class="imagelayer"/><g class="shapelayer"/></g><g class="cartesianlayer"><g class="subplot xy"><g class="layer-subplot"><g class="shapelayer"/><g class="imagelayer"/></g><g class="gridlayer"><g class="x"><path class="xgrid crisp" transform="translate(98.37,0)" d="M0,100v170" style="stroke: rgb(235, 240, 248); stroke-opacity: 1; stroke-width: 1px;"/><path class="xgrid crisp" transform="translate(144.3,0)" d="M0,100v170" style="stroke: rgb(235, 240, 248); stroke-opacity: 1; stroke-width: 1px;"/><path class="xgrid crisp" transform="translate(190.23000000000002,0)" d="M0,100v170" style="stroke: rgb(235, 240, 248); stroke-opacity: 1; stroke-width: 1px;"/></g><g class="y"><path class="ygrid crisp" transform="translate(0,189.25)" d="M80,0h156.15999999999997" style="stroke: rgb(235, 240, 248); stroke-opacity: 1; stroke-width: 1px;"/><path class="ygrid crisp" transform="translate(0,108.5)" d="M80,0h156.15999999999997" style="stroke: rgb(235, 240, 248); stroke-opacity: 1; stroke-width: 1px;"/></g></g><g class="zerolinelayer"><path class="yzl zl crisp" transform="translate(0,270)" d="M80,0h156.15999999999997" style="stroke: rgb(235, 240, 248); stroke-opacity: 1; stroke-width: 2px;"/></g><path class="xlines-below"/><path class="ylines-below"/><g class="overlines-below"/><g class="xaxislayer-below"/><g class="yaxislayer-below"/><g class="overaxes-below"/><g class="plot" transform="translate(80, 100)" clip-path="url('#clip7cea1cxyplot')"><g class="scatterlayer mlayer"><g class="trace scatter trace42a49c" style="stroke-miterlimit: 2;"><g class="fills"><g><path class="js-fill" d="M156.16,170L0,170L0,25.51L9.19,25.63L18.37,24.57L36.74,27.96L45.93,30.4L55.12,34.66L64.3,37.15L82.67,34.24L91.86,38.32L101.04,39.91L110.23,40.69L119.42,41.18L128.6,44.64L146.97,49.61L156.16,51.25" style="fill: rgb(99, 110, 250); fill-opacity: 0.5; stroke-width: 0;"/></g><g><path class="js-fill" d="M0,8.5L156.16,8.5L156.16,51.25L146.97,49.61L128.6,44.64L119.42,41.18L110.23,40.69L101.04,39.91L91.86,38.32L82.67,34.24L64.3,37.15L55.12,34.66L45.93,30.4L36.74,27.96L18.37,24.57L9.19,25.63L0,25.51Z" style="fill: rgb(239, 85, 59); fill-opacity: 0.5; stroke-width: 0;"/></g></g><g class="errorbars"/><g class="lines"><path class="js-line" d="M0,25.51L9.19,25.63L18.37,24.57L36.74,27.96L45.93,30.4L55.12,34.66L64.3,37.15L82.67,34.24L91.86,38.32L101.04,39.91L110.23,40.69L119.42,41.18L128.6,44.64L146.97,49.61L156.16,51.25" style="vector-effect: non-scaling-stroke; fill: none; stroke: rgb(99, 110, 250); stroke-opacity: 1; stroke-width: 2px; opacity: 1;"/></g><g class="points"/><g class="text"/></g><g class="trace scatter traceb2bb8d" style="stroke-miterlimit: 2;"><g class="fills"/><g class="errorbars"/><g class="lines"><path class="js-line" d="M0,8.5L156.16,8.5" style="vector-effect: non-scaling-stroke; fill: none; stroke: rgb(239, 85, 59); stroke-opacity: 1; stroke-width: 2px; opacity: 1;"/></g><g class="points"/><g class="text"/></g></g></g><g class="overplot"/><path class="xlines-above crisp" d="M79,270.5H236.15999999999997" style="fill: none; stroke-width: 1px; stroke: rgb(235, 240, 248); stroke-opacity: 1;"/><path class="ylines-above crisp" d="M79.5,100V270" style="fill: none; stroke-width: 1px; stroke: rgb(235, 240, 248); stroke-opacity: 1;"/><g class="overlines-above"/><g class="xaxislayer-above"><g class="xtick"><text text-anchor="middle" x="0" y="285.4" transform="translate(98.37,0)" style="font-family: 'Open Sans', verdana, arial, sans-serif; font-size: 12px; fill: rgb(42, 63, 95); fill-opacity: 1; white-space: pre;">2020</text></g><g class="xtick"><text text-anchor="middle" x="0" y="285.4" transform="translate(144.3,0)" style="font-family: 'Open Sans', verdana, arial, sans-serif; font-size: 12px; fill: rgb(42, 63, 95); fill-opacity: 1; white-space: pre;">2025</text></g><g class="xtick"><text text-anchor="middle" x="0" y="285.4" transform="translate(190.23000000000002,0)" style="font-family: 'Open Sans', verdana, arial, sans-serif; font-size: 12px; fill: rgb(42, 63, 95); fill-opacity: 1; white-space: pre;">2030</text></g><g class="xtick"><text text-anchor="middle" x="0" y="285.4" transform="translate(236.16,0)" style="font-family: 'Open Sans', verdana, arial, sans-serif; font-size: 12px; fill: rgb(42, 63, 95); fill-opacity: 1; white-space: pre;">2035</text></g></g><g class="yaxislayer-above"><g class="ytick"><text text-anchor="end" x="76.6" y="4.199999999999999" transform="translate(0,270)" style="font-family: 'Open Sans', verdana, arial, sans-serif; font-size: 12px; fill: rgb(42, 63, 95); fill-opacity: 1; white-space: pre;">0%</text></g><g class="ytick"><text text-anchor="end" x="76.6" y="4.199999999999999" transform="translate(0,189.25)" style="font-family: 'Open Sans', verdana, arial, sans-serif; font-size: 12px; fill: rgb(42, 63, 95); fill-opacity: 1; white-space: pre;">50%</text></g><g class="ytick"><text text-anchor="end" x="76.6" y="4.199999999999999" transform="translate(0,108.5)" style="font-family: 'Open Sans', verdana, arial, sans-serif; font-size: 12px; fill: rgb(42, 63, 95); fill-opacity: 1; white-space: pre;">100%</text></g></g><g class="overaxes-above"/></g><g class="subplot x2y2"><g class="layer-subplot"><g class="shapelayer"/><g class="imagelayer"/></g><g class="gridlayer"><g class="x2"><path class="x2grid crisp" transform="translate(264.28999999999996,0)" d="M0,100v170" style="stroke: rgb(235, 240, 248); stroke-opacity: 1; stroke-width: 1px;"/><path class="x2grid crisp" transform="translate(310.21999999999997,0)" d="M0,100v170" style="stroke: rgb(235, 240, 248); stroke-opacity: 1; stroke-width: 1px;"/><path class="x2grid crisp" transform="translate(356.15,0)" d="M0,100v170" style="stroke: rgb(235, 240, 248); stroke-opacity: 1; stroke-width: 1px;"/></g><g class="y2"><path class="y2grid crisp" transform="translate(0,189.25)" d="M245.92,0h156.15999999999997" style="stroke: rgb(235, 240, 248); stroke-opacity: 1; stroke-width: 1px;"/><path class="y2grid crisp" transform="translate(0,108.5)" d="M245.92,0h156.15999999999997" style="stroke: rgb(235, 240, 248); stroke-opacity: 1; stroke-width: 1px;"/></g></g><g class="zerolinelayer"><path class="y2zl zl crisp" transform="translate(0,270)" d="M245.92,0h156.15999999999997" style="stroke: rgb(235, 240, 248); stroke-opacity: 1; stroke-width: 2px;"/></g><path class="xlines-below"/><path class="ylines-below"/><g class="overlines-below"/><g class="xaxislayer-below"/><g class="yaxislayer-below"/><g class="overaxes-below"/><g class="plot" transform="translate(245.92, 100)" clip-path="url('#clip7cea1cx2y2plot')"><g class="scatterlayer mlayer"><g class="trace scatter trace234e37" style="stroke-miterlimit: 2;"><g class="fills"><g><path class="js-fill" d="M156.16,170L0,170L0,25.51L18.37,23.38L27.56,26.18L36.74,32.77L45.93,37.81L73.49,48.27L82.67,50.66L91.86,52.85L101.04,56.18L110.23,58.38L119.42,58.7L128.6,59.1L137.79,58.56L156.16,54.92" style="fill: rgb(99, 110, 250); fill-opacity: 0.5; stroke-width: 0;"/></g><g><path class="js-fill" d="M0,8.5L156.16,8.5L156.16,54.92L137.79,58.56L128.6,59.1L119.42,58.7L110.23,58.38L101.04,56.18L91.86,52.85L82.67,50.66L73.49,48.27L45.93,37.81L36.74,32.77L27.56,26.18L18.37,23.38L0,25.51Z" style="fill: rgb(239, 85, 59); fill-opacity: 0.5; stroke-width: 0;"/></g></g><g class="errorbars"/><g class="lines"><path class="js-line" d="M0,25.51L18.37,23.38L27.56,26.18L36.74,32.77L45.93,37.81L73.49,48.27L82.67,50.66L91.86,52.85L101.04,56.18L110.23,58.38L119.42,58.7L128.6,59.1L137.79,58.56L156.16,54.92" style="vector-effect: non-scaling-stroke; fill: none; stroke: rgb(99, 110, 250); stroke-opacity: 1; stroke-width: 2px; opacity: 1;"/></g><g class="points"/><g class="text"/></g><g class="trace scatter trace0da352" style="stroke-miterlimit: 2;"><g class="fills"/><g class="errorbars"/><g class="lines"><path class="js-line" d="M0,8.5L156.16,8.5" style="vector-effect: non-scaling-stroke; fill: none; stroke: rgb(239, 85, 59); stroke-opacity: 1; stroke-width: 2px; opacity: 1;"/></g><g class="points"/><g class="text"/></g></g></g><g class="overplot"/><path class="xlines-above crisp" d="M244.92,270.5H402.0799999999999" style="fill: none; stroke-width: 1px; stroke: rgb(235, 240, 248); stroke-opacity: 1;"/><path class="ylines-above crisp" d="M245.42,100V270" style="fill: none; stroke-width: 1px; stroke: rgb(235, 240, 248); stroke-opacity: 1;"/><g class="overlines-above"/><g class="xaxislayer-above"><g class="x2tick"><text text-anchor="middle" x="0" y="285.4" transform="translate(264.28999999999996,0)" style="font-family: 'Open Sans', verdana, arial, sans-serif; font-size: 12px; fill: rgb(42, 63, 95); fill-opacity: 1; white-space: pre;">2020</text></g><g class="x2tick"><text text-anchor="middle" x="0" y="285.4" transform="translate(310.21999999999997,0)" style="font-family: 'Open Sans', verdana, arial, sans-serif; font-size: 12px; fill: rgb(42, 63, 95); fill-opacity: 1; white-space: pre;">2025</text></g><g class="x2tick"><text text-anchor="middle" x="0" y="285.4" transform="translate(356.15,0)" style="font-family: 'Open Sans', verdana, arial, sans-serif; font-size: 12px; fill: rgb(42, 63, 95); fill-opacity: 1; white-space: pre;">2030</text></g><g class="x2tick"><text text-anchor="middle" x="0" y="285.4" transform="translate(402.08,0)" style="font-family: 'Open Sans', verdana, arial, sans-serif; font-size: 12px; fill: rgb(42, 63, 95); fill-opacity: 1; white-space: pre;">2035</text></g></g><g class="yaxislayer-above"/><g class="overaxes-above"/></g><g class="subplot x3y3"><g class="layer-subplot"><g class="shapelayer"/><g class="imagelayer"/></g><g class="gridlayer"><g class="x3"><path class="x3grid crisp" transform="translate(430.21,0)" d="M0,100v170" style="stroke: rgb(235, 240, 248); stroke-opacity: 1; stroke-width: 1px;"/><path class="x3grid crisp" transform="translate(476.14,0)" d="M0,100v170" style="stroke: rgb(235, 240, 248); stroke-opacity: 1; stroke-width: 1px;"/><path class="x3grid crisp" transform="translate(522.0699999999999,0)" d="M0,100v170" style="stroke: rgb(235, 240, 248); stroke-opacity: 1; stroke-width: 1px;"/></g><g class="y3"><path class="y3grid crisp" transform="translate(0,189.25)" d="M411.84,0h156.15999999999997" style="stroke: rgb(235, 240, 248); stroke-opacity: 1; stroke-width: 1px;"/><path class="y3grid crisp" transform="translate(0,108.5)" d="M411.84,0h156.15999999999997" style="stroke: rgb(235, 240, 248); stroke-opacity: 1; stroke-width: 1px;"/></g></g><g class="zerolinelayer"><path class="y3zl zl crisp" transform="translate(0,270)" d="M411.84,0h156.15999999999997" style="stroke: rgb(235, 240, 248); stroke-opacity: 1; stroke-width: 2px;"/></g><path class="xlines-below"/><path class="ylines-below"/><g class="overlines-below"/><g class="xaxislayer-below"/><g class="yaxislayer-below"/><g class="overaxes-below"/><g class="plot" transform="translate(411.84, 100)" clip-path="url('#clip7cea1cx3y3plot')"><g class="scatterlayer mlayer"><g class="trace scatter trace888ce1" style="stroke-miterlimit: 2;"><g class="fills"><g><path class="js-fill" d="M156.16,170L0,170L0,25.51L18.37,24.92L27.56,31.23L36.74,33.48L45.93,33.41L55.12,34.88L64.3,35.15L73.49,35.25L82.67,37.14L101.04,41.52L110.23,43.19L128.6,45.82L137.79,46.47L156.16,45.91" style="fill: rgb(99, 110, 250); fill-opacity: 0.5; stroke-width: 0;"/></g><g><path class="js-fill" d="M0,8.5L156.16,8.5L156.16,45.91L137.79,46.47L128.6,45.82L110.23,43.19L101.04,41.52L82.67,37.14L73.49,35.25L64.3,35.15L55.12,34.88L45.93,33.41L36.74,33.48L27.56,31.23L18.37,24.92L0,25.51Z" style="fill: rgb(239, 85, 59); fill-opacity: 0.5; stroke-width: 0;"/></g></g><g class="errorbars"/><g class="lines"><path class="js-line" d="M0,25.51L18.37,24.92L27.56,31.23L36.74,33.48L45.93,33.41L55.12,34.88L64.3,35.15L73.49,35.25L82.67,37.14L101.04,41.52L110.23,43.19L128.6,45.82L137.79,46.47L156.16,45.91" style="vector-effect: non-scaling-stroke; fill: none; stroke: rgb(99, 110, 250); stroke-opacity: 1; stroke-width: 2px; opacity: 1;"/></g><g class="points"/><g class="text"/></g><g class="trace scatter trace0a5ea0" style="stroke-miterlimit: 2;"><g class="fills"/><g class="errorbars"/><g class="lines"><path class="js-line" d="M0,8.5L156.16,8.5" style="vector-effect: non-scaling-stroke; fill: none; stroke: rgb(239, 85, 59); stroke-opacity: 1; stroke-width: 2px; opacity: 1;"/></g><g class="points"/><g class="text"/></g></g></g><g class="overplot"/><path class="xlines-above crisp" d="M410.84,270.5H568" style="fill: none; stroke-width: 1px; stroke: rgb(235, 240, 248); stroke-opacity: 1;"/><path class="ylines-above crisp" d="M411.34,100V270" style="fill: none; stroke-width: 1px; stroke: rgb(235, 240, 248); stroke-opacity: 1;"/><g class="overlines-above"/><g class="xaxislayer-above"><g class="x3tick"><text text-anchor="middle" x="0" y="285.4" transform="translate(430.21,0)" style="font-family: 'Open Sans', verdana, arial, sans-serif; font-size: 12px; fill: rgb(42, 63, 95); fill-opacity: 1; white-space: pre;">2020</text></g><g class="x3tick"><text text-anchor="middle" x="0" y="285.4" transform="translate(476.14,0)" style="font-family: 'Open Sans', verdana, arial, sans-serif; font-size: 12px; fill: rgb(42, 63, 95); fill-opacity: 1; white-space: pre;">2025</text></g><g class="x3tick"><text text-anchor="middle" x="0" y="285.4" transform="translate(522.0699999999999,0)" style="font-family: 'Open Sans', verdana, arial, sans-serif; font-size: 12px; fill: rgb(42, 63, 95); fill-opacity: 1; white-space: pre;">2030</text></g><g class="x3tick"><text text-anchor="middle" x="0" y="285.4" transform="translate(568,0)" style="font-family: 'Open Sans', verdana, arial, sans-serif; font-size: 12px; fill: rgb(42, 63, 95); fill-opacity: 1; white-space: pre;">2035</text></g></g><g class="yaxislayer-above"/><g class="overaxes-above"/></g></g><g class="polarlayer"/><g class="ternarylayer"/><g class="geolayer"/><g class="funnelarealayer"/><g class="pielayer"/><g class="treemaplayer"/><g class="sunburstlayer"/><g class="glimages"/><defs id="topdefs-7cea1c"><g class="clips"/><clipPath id="legend7cea1c"><rect width="110" height="64" x="0" y="0"/></clipPath></defs><g class="layer-above"><g class="imagelayer"/><g class="shapelayer"/></g><g class="infolayer"><g class="legend" pointer-events="all" transform="translate(577.76, 100)"><rect class="bg" shape-rendering="crispEdges" style="stroke: rgb(68, 68, 68); stroke-opacity: 1; fill: rgb(255, 255, 255); fill-opacity: 1; stroke-width: 0px;" width="110" height="64" x="0" y="0"/><g class="scrollbox" transform="translate(0, 0)" clip-path="url('#legend7cea1c')"><text class="legendtitletext user-select-none" text-anchor="start" x="2" y="15.600000000000001" style="font-family: 'Open Sans', verdana, arial, sans-serif; font-size: 12px; fill: rgb(42, 63, 95); fill-opacity: 1; white-space: pre;">Type</text><g class="groups" transform="translate(0, 0)"><g class="traces" transform="translate(0, 30.1)" style="opacity: 1;"><text class="legendtext user-select-none" text-anchor="start" x="40" y="4.680000000000001" style="font-family: 'Open Sans', verdana, arial, sans-serif; font-size: 12px; fill: rgb(42, 63, 95); fill-opacity: 1; white-space: pre;">Fossil fuel</text><g class="layers"><g class="legendfill"><path class="js-fill" d="M5,-2h30v6h-30z" style="stroke-width: 0; fill: rgb(99, 110, 250); fill-opacity: 0.5;"/></g><g class="legendlines"><path class="js-line" d="M5,-2h30" style="fill: none; stroke: rgb(99, 110, 250); stroke-opacity: 1; stroke-width: 2px;"/></g><g class="legendsymbols"><g class="legendpoints"/></g></g><rect class="legendtoggle" pointer-events="all" x="0" y="-9.5" width="104.78125" height="19" style="cursor: pointer; fill: rgb(0, 0, 0); fill-opacity: 0;"/></g></g><g class="groups" transform="translate(0, 0)"><g class="traces" transform="translate(0, 49.1)" style="opacity: 1;"><text class="legendtext user-select-none" text-anchor="start" x="40" y="4.680000000000001" style="font-family: 'Open Sans', verdana, arial, sans-serif; font-size: 12px; fill: rgb(42, 63, 95); fill-opacity: 1; white-space: pre;">Renewable</text><g class="layers"><g class="legendfill"><path class="js-fill" d="M5,-2h30v6h-30z" style="stroke-width: 0; fill: rgb(239, 85, 59); fill-opacity: 0.5;"/></g><g class="legendlines"><path class="js-line" d="M5,-2h30" style="fill: none; stroke: rgb(239, 85, 59); stroke-opacity: 1; stroke-width: 2px;"/></g><g class="legendsymbols"><g class="legendpoints"/></g></g><rect class="legendtoggle" pointer-events="all" x="0" y="-9.5" width="104.78125" height="19" style="cursor: pointer; fill: rgb(0, 0, 0); fill-opacity: 0;"/></g></g></g><rect class="scrollbar" rx="20" ry="3" width="0" height="0" style="fill: rgb(128, 139, 164); fill-opacity: 1;" x="0" y="0"/></g><g class="g-gtitle"><text class="gtitle" x="35" y="50" text-anchor="start" dy="0em" style="font-family: 'Open Sans', verdana, arial, sans-serif; font-size: 17px; fill: rgb(42, 63, 95); opacity: 1; font-weight: normal; white-space: pre;">Renewable energy share in electricity generation</text></g><g class="g-xtitle"><text class="xtitle" x="158.07999999999998" y="313.20625" text-anchor="middle" style="font-family: 'Open Sans', verdana, arial, sans-serif; font-size: 14px; fill: rgb(42, 63, 95); opacity: 1; font-weight: normal; white-space: pre;">y</text></g><g class="g-x2title"><text class="x2title" x="324" y="313.20625" text-anchor="middle" style="font-family: 'Open Sans', verdana, arial, sans-serif; font-size: 14px; fill: rgb(42, 63, 95); opacity: 1; font-weight: normal; white-space: pre;">y</text></g><g class="g-x3title"><text class="x3title" x="489.91999999999996" y="313.20625" text-anchor="middle" style="font-family: 'Open Sans', verdana, arial, sans-serif; font-size: 14px; fill: rgb(42, 63, 95); opacity: 1; font-weight: normal; white-space: pre;">y</text></g><g class="g-ytitle"><text class="ytitle" transform="rotate(-90,15.996875000000003,185)" x="15.996875000000003" y="185" text-anchor="middle" style="font-family: 'Open Sans', verdana, arial, sans-serif; font-size: 14px; fill: rgb(42, 63, 95); opacity: 1; font-weight: normal; white-space: pre;">Share</text></g><g class="g-y2title"/><g class="g-y3title"/><g class="annotation" data-index="0" style="opacity: 1;"><g class="annotation-text-g" transform="rotate(0,158.07999999999998,90.5)"><g class="cursor-pointer" transform="translate(114, 81)"><rect class="bg" x="0.5" y="0.5" width="88" height="18" style="stroke-width: 1px; stroke: rgb(0, 0, 0); stroke-opacity: 0; fill: rgb(0, 0, 0); fill-opacity: 0;"/><text class="annotation-text" text-anchor="middle" x="44.5625" y="14" style="font-family: 'Open Sans', verdana, arial, sans-serif; font-size: 12px; fill: rgb(42, 63, 95); fill-opacity: 1; white-space: pre;">scenario=BAU</text></g></g></g><g class="annotation" data-index="1" style="opacity: 1;"><g class="annotation-text-g" transform="rotate(0,324,90.5)"><g class="cursor-pointer" transform="translate(245, 81)"><rect class="bg" x="0.5" y="0.5" width="157" height="18" style="stroke-width: 1px; stroke: rgb(0, 0, 0); stroke-opacity: 0; fill: rgb(0, 0, 0); fill-opacity: 0;"/><text class="annotation-text" text-anchor="middle" x="79.09375" y="14" style="font-family: 'Open Sans', verdana, arial, sans-serif; font-size: 12px; fill: rgb(42, 63, 95); fill-opacity: 1; white-space: pre;">scenario=Current policies</text></g></g></g><g class="annotation" data-index="2" style="opacity: 1;"><g class="annotation-text-g" transform="rotate(0,489.91999999999996,90.5)"><g class="cursor-pointer" transform="translate(441, 81)"><rect class="bg" x="0.5" y="0.5" width="97" height="18" style="stroke-width: 1px; stroke: rgb(0, 0, 0); stroke-opacity: 0; fill: rgb(0, 0, 0); fill-opacity: 0;"/><text class="annotation-text" text-anchor="middle" x="49.1875" y="14" style="font-family: 'Open Sans', verdana, arial, sans-serif; font-size: 12px; fill: rgb(42, 63, 95); fill-opacity: 1; white-space: pre;">scenario=SDG7</text></g></g></g></g></svg>